<svg xmlns="http://www.w3.org/2000/svg" xmlns:xlink="http://www.w3.org/1999/xlink" width="2000" zoomAndPan="magnify" viewBox="0 0 1500 1499.999933" height="2000" preserveAspectRatio="xMidYMid meet" version="1.0"><defs><filter x="0%" y="0%" width="100%" height="100%" id="9303b479a0"><feColorMatrix values="0 0 0 0 1 0 0 0 0 1 0 0 0 0 1 0 0 0 1 0" color-interpolation-filters="sRGB"/></filter><mask id="368dc5f41b"><g filter="url(#9303b479a0)"><rect x="-150" width="1800" fill="#000000" y="-149.999993" height="1799.99992" fill-opacity="0.5"/></g></mask><clipPath id="8f53329081"><path d="M 0.398438 0.398438 L 1001.601562 0.398438 L 1001.601562 1001.601562 L 0.398438 1001.601562 Z M 0.398438 0.398438 " clip-rule="nonzero"/></clipPath><clipPath id="b353830141"><path d="M 501 0.398438 C 224.523438 0.398438 0.398438 224.523438 0.398438 501 C 0.398438 777.476562 224.523438 1001.601562 501 1001.601562 C 777.476562 1001.601562 1001.601562 777.476562 1001.601562 501 C 1001.601562 224.523438 777.476562 0.398438 501 0.398438 Z M 501 0.398438 " clip-rule="nonzero"/></clipPath><clipPath id="044c4a7bd1"><path d="M 0.398438 0.398438 L 1001.601562 0.398438 L 1001.601562 1001.601562 L 0.398438 1001.601562 Z M 0.398438 0.398438 " clip-rule="nonzero"/></clipPath><clipPath id="bcf94051df"><path d="M 501 0.398438 C 224.523438 0.398438 0.398438 224.523438 0.398438 501 C 0.398438 777.476562 224.523438 1001.601562 501 1001.601562 C 777.476562 1001.601562 1001.601562 777.476562 1001.601562 501 C 1001.601562 224.523438 777.476562 0.398438 501 0.398438 Z M 501 0.398438 " clip-rule="nonzero"/></clipPath><clipPath id="a10f77222f"><rect x="0" width="1002" y="0" height="1002"/></clipPath><clipPath id="b1704a6253"><rect x="0" width="1002" y="0" height="1002"/></clipPath></defs><g mask="url(#368dc5f41b)"><g transform="matrix(1, 0, 0, 1, 249, 249)"><g clip-path="url(#b1704a6253)"><g clip-path="url(#8f53329081)"><g clip-path="url(#b353830141)"><g transform="matrix(1, 0, 0, 1, 0, 0.000000000000113687)"><g clip-path="url(#a10f77222f)"><g clip-path="url(#044c4a7bd1)"><g clip-path="url(#bcf94051df)"><path fill="#ffffff" d="M 0.398438 0.398438 L 1001.601562 0.398438 L 1001.601562 1001.601562 L 0.398438 1001.601562 Z M 0.398438 0.398438 " fill-opacity="1" fill-rule="nonzero"/></g></g></g></g></g></g></g></g></g><path fill="#201e1e" d="M 874.914062 637.355469 C 869.0625 637.648438 868.328125 640.136719 888.820312 653.453125 C 894.085938 672.773438 883.988281 689.164062 863.351562 701.3125 C 846.082031 716.828125 821.640625 675.847656 796.027344 667.210938 C 787.980469 664.429688 786.222656 659.601562 790.90625 652.578125 C 796.761719 643.648438 803.785156 653.894531 817.25 629.597656 C 821.640625 621.546875 827.054688 610.863281 835.398438 597.839844 C 835.984375 592.570312 835.398438 587.449219 833.789062 582.472656 C 843.59375 583.351562 853.402344 578.960938 859.253906 570.324219 C 850.179688 577.496094 837.742188 577.789062 828.375 572.082031 C 826.765625 569.738281 824.859375 567.691406 822.664062 565.785156 C 813.445312 557.882812 800.859375 554.808594 789.148438 557.882812 C 785.492188 557.003906 782.125 557.152344 779.050781 557.882812 C 776.710938 558.46875 774.367188 559.492188 772.171875 560.8125 C 754.902344 571.789062 746.707031 605.304688 744.511719 618.769531 C 741.585938 636.332031 728.558594 644.378906 705.289062 643.210938 C 686.699219 622.132812 581.03125 627.988281 553.808594 633.695312 L 448.726562 633.695312 L 548.394531 637.648438 C 545.175781 647.601562 536.394531 661.796875 522.195312 680.238281 L 454.433594 680.238281 L 518.976562 684.480469 C 514 690.773438 508.4375 697.507812 502.144531 704.679688 C 501.414062 709.65625 492.777344 724.289062 476.242188 748.292969 L 393.402344 748.292969 L 473.167969 752.683594 C 491.023438 771.125 503.023438 774.636719 509.171875 762.929688 C 518.683594 761.90625 523.074219 745.660156 522.195312 714.191406 C 540.050781 694.875 569.03125 687.117188 591.128906 662.234375 C 597.132812 671.601562 606.789062 677.894531 617.621094 679.796875 C 628.597656 681.699219 639.71875 678.921875 648.5 672.1875 C 646.453125 709.949219 635.039062 743.609375 614.402344 773.171875 C 597.277344 784.882812 584.542969 798.933594 576.347656 815.179688 L 428.089844 815.179688 L 572.835938 823.082031 C 569.46875 831.714844 567.128906 840.789062 566.101562 850.449219 C 543.125 891.722656 524.832031 919.238281 511.367188 932.847656 C 488.828125 935.335938 474.191406 946.753906 461.605469 962.558594 L 285.097656 962.558594 L 456.773438 969.144531 C 443.601562 987.585938 432.039062 1010.5625 414.769531 1032.664062 C 405.550781 1043.199219 393.988281 1051.691406 381.109375 1057.25 C 371.742188 1056.226562 363.691406 1060.765625 356.667969 1070.421875 C 355.351562 1072.324219 354.324219 1074.230469 353.300781 1076.277344 L 301.636719 1076.277344 L 352.277344 1079.058594 C 346.714844 1094.863281 349.789062 1116.234375 349.058594 1132.332031 C 348.179688 1152.527344 350.8125 1159.992188 360.179688 1135.40625 C 384.476562 1049.054688 492.777344 1035.445312 532.148438 973.390625 C 568.152344 944.265625 607.523438 913.53125 643.085938 873.574219 C 667.234375 884.257812 691.089844 887.625 714.800781 883.820312 C 667.820312 914.847656 663.285156 926.703125 608.253906 927.726562 C 598.742188 929.042969 590.105469 944.703125 590.398438 982.464844 C 589.082031 995.78125 587.03125 1008.222656 583.957031 1019.636719 C 575.761719 1050.664062 600.644531 1014.367188 604.742188 1006.171875 C 619.816406 974.265625 641.625 952.753906 670.457031 941.921875 L 745.683594 916.894531 C 768.222656 909.429688 798.078125 907.527344 794.566406 878.402344 C 793.539062 869.476562 788.710938 861.28125 781.246094 856.011719 C 749.78125 831.714844 718.460938 817.519531 680.992188 818.398438 C 679.820312 808.152344 681.285156 800.542969 691.675781 791.027344 C 730.023438 758.097656 757.976562 733.949219 775.246094 718.582031 C 830.714844 744.925781 842.132812 741.269531 881.941406 738.925781 C 898.332031 738.046875 901.699219 700.289062 908.285156 659.015625 C 924.675781 607.9375 888.671875 591.839844 896.136719 611.15625 C 909.453125 645.699219 876.671875 637.207031 874.914062 637.355469 " fill-opacity="1" fill-rule="evenodd"/><path fill="#ed3237" d="M 1106.15625 803.175781 C 1177.578125 774.636719 1298.46875 725.167969 1319.398438 638.671875 C 1349.839844 513.683594 1101.472656 476.070312 1005.609375 464.949219 C 766.027344 436.992188 480.925781 464.070312 150.160156 546.027344 C 426.1875 482.65625 687.578125 464.507812 934.480469 491.585938 C 1024.050781 501.390625 1212.707031 529.492188 1251.34375 617.449219 C 1288.957031 702.921875 1163.820312 773.464844 1106.15625 803.175781 " fill-opacity="1" fill-rule="evenodd"/><path fill="#201e1e" d="M 1102.351562 565.203125 C 1205.972656 607.792969 1235.390625 663.113281 1190.75 731.167969 C 1263.050781 655.503906 1245.636719 596.667969 1138.648438 554.664062 C 955.410156 482.65625 625.523438 484.707031 433.066406 514.414062 C 606.644531 490.558594 940.628906 498.753906 1102.351562 565.203125 " fill-opacity="1" fill-rule="evenodd"/></svg>